<svg xmlns="http://www.w3.org/2000/svg" viewBox="0 0 1920 1080"><defs><style>.a{fill:#fff;}.b{opacity:0.5;}.c{fill:#5ca8ad;}</style></defs><title>慈善網頁Banner - new</title><rect class="a" x="-0.64" y="0.41" width="1920" height="1080"/><g class="b"><path class="c" d="M1174.42.41C1071.65,94.91,974.8,222.53,928.73,356.59,908.89,414.31,898.61,475.36,878,532.77c-24.69,68.76-63.57,130.61-102.13,191.81L551.39,1080.86H877.2c14-18.11,24.07-40.45,34.11-61.65,80.33-169.46,201.36-312.7,306.5-466.21S1415.4,226,1424,36.6c.5-11,9.51-29.16,1.38-36.13Z"/></g><g class="b"><path class="c" d="M1424.48.47c-7,6.2-12.14,15.54-16.18,24.2a1107.25,1107.25,0,0,0-89.49,291.92c-5.76,35.91-9.9,72.68-24.56,106-17.23,39.14-47.7,70.61-76.44,102.29a1752.6,1752.6,0,0,0-175,227.88c-44.67,69.28-84.66,142-137.21,205.51-17.46,21.11-36.4,41.32-49.86,65.18-9.8,17.37-16.51,37.27-16.61,57,33.44,0,602.69.42,645.28.45-53.18-75.27-76.33-170.08-83.32-262.79-2.67-35.4-3.22-71.19,2.64-106.21,6.25-37.32,19.65-73,32.51-108.57q51.21-141.7,92.42-286.76c19.8-69.7,37.93-140.4,42.71-212.7,2.29-34.68.94-71.18-10.64-103.43C1553.61.41,1434.24.41,1424.48.47Z"/></g><g class="b"><path class="c" d="M1557.69.41c14.79,210-59.29,416.33-146.29,608.31-12,26.52-24.37,53.1-31.58,81.3s-9.1,57.35-8.6,86.37a533.67,533.67,0,0,0,90.16,286.83c4,6,8.35,12.07,13.45,17.19,32.53,1.16,312.53-.5,445.53,0,1-68-1-1080-1-1080S1557.49-2.46,1557.69.41Z"/></g></svg>